{
    "asset" : {
        "generator" : "Khronos glTF Blender I/O v0.9.36",
        "version" : "2.0"
    },
    "scene" : 0,
    "scenes" : [
        {
            "name" : "Scene",
            "nodes" : [
                0,
                1,
                2,
                3,
                4,
                5,
                6
            ]
        }
    ],
    "nodes" : [
        {
            "mesh" : 0,
            "name" : "player",
            "translation" : [
                -1.2501347064971924,
                1,
                -9.92347526550293
            ]
        },
        {
            "mesh" : 1,
            "name" : "enemy",
            "translation" : [
                5,
                1,
                -5
            ]
        },
        {
            "mesh" : 2,
            "name" : "SF_Bld_Castle_Wall_Tower_01",
            "rotation" : [
                0.7071068286895752,
                0,
                0,
                0.7071067094802856
            ],
            "translation" : [
                0,
                1,
                0
            ]
        },
        {
            "mesh" : 3,
            "name" : "grass_floor",
            "rotation" : [
                0.7071068286895752,
                0,
                0,
                0.7071067094802856
            ],
            "translation" : [
                3.000521183013916,
                0.13768254220485687,
                -5.8027215003967285
            ]
        },
        {
            "mesh" : 4,
            "name" : "SF_Bld_Castle_Wall_Tower_01.001",
            "rotation" : [
                0.7071068286895752,
                0,
                0,
                0.7071067094802856
            ],
            "translation" : [
                5.52544641494751,
                1,
                -11.815210342407227
            ]
        },
        {
            "mesh" : 5,
            "name" : "SF_Env_Tree_01",
            "rotation" : [
                0.7071068286895752,
                0,
                0,
                0.7071067094802856
            ],
            "translation" : [
                -3.4200642108917236,
                4.735121250152588,
                -3.823288917541504
            ]
        },
        {
            "mesh" : 6,
            "name" : "SF_Bld_House_Burntdown_01",
            "rotation" : [
                0.3048721253871918,
                0.6380069851875305,
                -0.6380071043968201,
                0.304872065782547
            ],
            "translation" : [
                9.738629341125488,
                1.1749238967895508,
                1.6871649026870728
            ]
        }
    ],
    "materials" : [
        {
            "doubleSided" : true,
            "name" : "Material",
            "pbrMetallicRoughness" : {
                "baseColorFactor" : [
                    0.800000011920929,
                    0.800000011920929,
                    0.800000011920929,
                    1
                ],
                "metallicFactor" : 0,
                "roughnessFactor" : 0.4000000059604645
            }
        },
        {
            "doubleSided" : true,
            "name" : "Medieval_Material",
            "pbrMetallicRoughness" : {
                "baseColorTexture" : {
                    "index" : 0,
                    "texCoord" : 0
                },
                "metallicFactor" : 0,
                "roughnessFactor" : 0.5527864098548889
            }
        },
        {
            "doubleSided" : true,
            "name" : "Medieval_Material.001",
            "pbrMetallicRoughness" : {
                "baseColorTexture" : {
                    "index" : 1,
                    "texCoord" : 0
                },
                "metallicFactor" : 0,
                "roughnessFactor" : 0.5527864098548889
            }
        },
        {
            "doubleSided" : true,
            "name" : "Medieval_Material.002",
            "pbrMetallicRoughness" : {
                "baseColorTexture" : {
                    "index" : 2,
                    "texCoord" : 0
                },
                "metallicFactor" : 0,
                "roughnessFactor" : 0.5527864098548889
            }
        },
        {
            "doubleSided" : true,
            "name" : "Medieval_Material.003",
            "pbrMetallicRoughness" : {
                "baseColorTexture" : {
                    "index" : 3,
                    "texCoord" : 0
                },
                "metallicFactor" : 0,
                "roughnessFactor" : 0.5527864098548889
            }
        }
    ],
    "meshes" : [
        {
            "name" : "Cube",
            "primitives" : [
                {
                    "attributes" : {
                        "POSITION" : 0,
                        "NORMAL" : 1,
                        "TEXCOORD_0" : 2
                    },
                    "indices" : 3,
                    "material" : 0
                }
            ]
        },
        {
            "name" : "Cube.001",
            "primitives" : [
                {
                    "attributes" : {
                        "POSITION" : 4,
                        "NORMAL" : 5,
                        "TEXCOORD_0" : 6
                    },
                    "indices" : 3
                }
            ]
        },
        {
            "name" : "Scene",
            "primitives" : [
                {
                    "attributes" : {
                        "POSITION" : 7,
                        "NORMAL" : 8,
                        "TEXCOORD_0" : 9
                    },
                    "indices" : 10,
                    "material" : 1
                }
            ]
        },
        {
            "name" : "Scene.003",
            "primitives" : [
                {
                    "attributes" : {
                        "POSITION" : 11,
                        "NORMAL" : 12,
                        "TEXCOORD_0" : 13
                    },
                    "indices" : 14,
                    "material" : 2
                }
            ]
        },
        {
            "name" : "Scene.004",
            "primitives" : [
                {
                    "attributes" : {
                        "POSITION" : 15,
                        "NORMAL" : 16,
                        "TEXCOORD_0" : 17
                    },
                    "indices" : 10,
                    "material" : 1
                }
            ]
        },
        {
            "name" : "Scene.005",
            "primitives" : [
                {
                    "attributes" : {
                        "POSITION" : 18,
                        "NORMAL" : 19,
                        "TEXCOORD_0" : 20,
                        "COLOR_0" : 21
                    },
                    "indices" : 22,
                    "material" : 3
                }
            ]
        },
        {
            "name" : "Scene.006",
            "primitives" : [
                {
                    "attributes" : {
                        "POSITION" : 23,
                        "NORMAL" : 24,
                        "TEXCOORD_0" : 25,
                        "COLOR_0" : 26
                    },
                    "indices" : 27,
                    "material" : 4
                }
            ]
        }
    ],
    "textures" : [
        {
            "source" : 0
        },
        {
            "source" : 0
        },
        {
            "source" : 0
        },
        {
            "source" : 0
        }
    ],
    "images" : [
        {
            "mimeType" : "image/png",
            "name" : "Medieval_Texture",
            "uri" : "Medieval_Texture.png"
        }
    ],
    "accessors" : [
        {
            "bufferView" : 0,
            "componentType" : 5126,
            "count" : 24,
            "max" : [
                1,
                1,
                1
            ],
            "min" : [
                -1,
                -1,
                -1
            ],
            "type" : "VEC3"
        },
        {
            "bufferView" : 1,
            "componentType" : 5126,
            "count" : 24,
            "type" : "VEC3"
        },
        {
            "bufferView" : 2,
            "componentType" : 5126,
            "count" : 24,
            "type" : "VEC2"
        },
        {
            "bufferView" : 3,
            "componentType" : 5123,
            "count" : 36,
            "type" : "SCALAR"
        },
        {
            "bufferView" : 4,
            "componentType" : 5126,
            "count" : 24,
            "max" : [
                1,
                1,
                1
            ],
            "min" : [
                -1,
                -1,
                -1
            ],
            "type" : "VEC3"
        },
        {
            "bufferView" : 5,
            "componentType" : 5126,
            "count" : 24,
            "type" : "VEC3"
        },
        {
            "bufferView" : 6,
            "componentType" : 5126,
            "count" : 24,
            "type" : "VEC2"
        },
        {
            "bufferView" : 7,
            "componentType" : 5126,
            "count" : 1011,
            "max" : [
                0.9996591210365295,
                0.9959784150123596,
                1.0131468772888184
            ],
            "min" : [
                -1.0003409385681152,
                -1.0040216445922852,
                -0.9868530631065369
            ],
            "type" : "VEC3"
        },
        {
            "bufferView" : 8,
            "componentType" : 5126,
            "count" : 1011,
            "type" : "VEC3"
        },
        {
            "bufferView" : 9,
            "componentType" : 5126,
            "count" : 1011,
            "type" : "VEC2"
        },
        {
            "bufferView" : 10,
            "componentType" : 5123,
            "count" : 1659,
            "type" : "SCALAR"
        },
        {
            "bufferView" : 11,
            "componentType" : 5126,
            "count" : 4,
            "max" : [
                8.418272018432617,
                8.418272018432617,
                0
            ],
            "min" : [
                -8.418272018432617,
                -8.418272018432617,
                0
            ],
            "type" : "VEC3"
        },
        {
            "bufferView" : 12,
            "componentType" : 5126,
            "count" : 4,
            "type" : "VEC3"
        },
        {
            "bufferView" : 13,
            "componentType" : 5126,
            "count" : 4,
            "type" : "VEC2"
        },
        {
            "bufferView" : 14,
            "componentType" : 5123,
            "count" : 6,
            "type" : "SCALAR"
        },
        {
            "bufferView" : 15,
            "componentType" : 5126,
            "count" : 1011,
            "max" : [
                0.9996591210365295,
                0.9959784150123596,
                1.0131468772888184
            ],
            "min" : [
                -1.0003409385681152,
                -1.0040216445922852,
                -0.9868530631065369
            ],
            "type" : "VEC3"
        },
        {
            "bufferView" : 16,
            "componentType" : 5126,
            "count" : 1011,
            "type" : "VEC3"
        },
        {
            "bufferView" : 17,
            "componentType" : 5126,
            "count" : 1011,
            "type" : "VEC2"
        },
        {
            "bufferView" : 18,
            "componentType" : 5126,
            "count" : 326,
            "max" : [
                2.897538900375366,
                2.1999411582946777,
                4.760488510131836
            ],
            "min" : [
                -2.3353707790374756,
                -2.0710396766662598,
                -2.382005214691162
            ],
            "type" : "VEC3"
        },
        {
            "bufferView" : 19,
            "componentType" : 5126,
            "count" : 326,
            "type" : "VEC3"
        },
        {
            "bufferView" : 20,
            "componentType" : 5126,
            "count" : 326,
            "type" : "VEC2"
        },
        {
            "bufferView" : 21,
            "componentType" : 5126,
            "count" : 326,
            "type" : "VEC4"
        },
        {
            "bufferView" : 22,
            "componentType" : 5123,
            "count" : 474,
            "type" : "SCALAR"
        },
        {
            "bufferView" : 23,
            "componentType" : 5126,
            "count" : 3498,
            "max" : [
                3.8073809146881104,
                3.6939568519592285,
                1.1749238967895508
            ],
            "min" : [
                -3.3411948680877686,
                -3.386366367340088,
                -3.721463680267334
            ],
            "type" : "VEC3"
        },
        {
            "bufferView" : 24,
            "componentType" : 5126,
            "count" : 3498,
            "type" : "VEC3"
        },
        {
            "bufferView" : 25,
            "componentType" : 5126,
            "count" : 3498,
            "type" : "VEC2"
        },
        {
            "bufferView" : 26,
            "componentType" : 5126,
            "count" : 3498,
            "type" : "VEC4"
        },
        {
            "bufferView" : 27,
            "componentType" : 5123,
            "count" : 5886,
            "type" : "SCALAR"
        }
    ],
    "bufferViews" : [
        {
            "buffer" : 0,
            "byteLength" : 288,
            "byteOffset" : 0
        },
        {
            "buffer" : 0,
            "byteLength" : 288,
            "byteOffset" : 288
        },
        {
            "buffer" : 0,
            "byteLength" : 192,
            "byteOffset" : 576
        },
        {
            "buffer" : 0,
            "byteLength" : 72,
            "byteOffset" : 768
        },
        {
            "buffer" : 0,
            "byteLength" : 288,
            "byteOffset" : 840
        },
        {
            "buffer" : 0,
            "byteLength" : 288,
            "byteOffset" : 1128
        },
        {
            "buffer" : 0,
            "byteLength" : 192,
            "byteOffset" : 1416
        },
        {
            "buffer" : 0,
            "byteLength" : 12132,
            "byteOffset" : 1608
        },
        {
            "buffer" : 0,
            "byteLength" : 12132,
            "byteOffset" : 13740
        },
        {
            "buffer" : 0,
            "byteLength" : 8088,
            "byteOffset" : 25872
        },
        {
            "buffer" : 0,
            "byteLength" : 3318,
            "byteOffset" : 33960
        },
        {
            "buffer" : 0,
            "byteLength" : 48,
            "byteOffset" : 37280
        },
        {
            "buffer" : 0,
            "byteLength" : 48,
            "byteOffset" : 37328
        },
        {
            "buffer" : 0,
            "byteLength" : 32,
            "byteOffset" : 37376
        },
        {
            "buffer" : 0,
            "byteLength" : 12,
            "byteOffset" : 37408
        },
        {
            "buffer" : 0,
            "byteLength" : 12132,
            "byteOffset" : 37420
        },
        {
            "buffer" : 0,
            "byteLength" : 12132,
            "byteOffset" : 49552
        },
        {
            "buffer" : 0,
            "byteLength" : 8088,
            "byteOffset" : 61684
        },
        {
            "buffer" : 0,
            "byteLength" : 3912,
            "byteOffset" : 69772
        },
        {
            "buffer" : 0,
            "byteLength" : 3912,
            "byteOffset" : 73684
        },
        {
            "buffer" : 0,
            "byteLength" : 2608,
            "byteOffset" : 77596
        },
        {
            "buffer" : 0,
            "byteLength" : 5216,
            "byteOffset" : 80204
        },
        {
            "buffer" : 0,
            "byteLength" : 948,
            "byteOffset" : 85420
        },
        {
            "buffer" : 0,
            "byteLength" : 41976,
            "byteOffset" : 86368
        },
        {
            "buffer" : 0,
            "byteLength" : 41976,
            "byteOffset" : 128344
        },
        {
            "buffer" : 0,
            "byteLength" : 27984,
            "byteOffset" : 170320
        },
        {
            "buffer" : 0,
            "byteLength" : 55968,
            "byteOffset" : 198304
        },
        {
            "buffer" : 0,
            "byteLength" : 11772,
            "byteOffset" : 254272
        }
    ],
    "buffers" : [
        {
            "byteLength" : 266044,
            "uri" : "map.bin"
        }
    ]
}
